<svg width="36" height="10" viewBox="0 0 36 10" fill="none" xmlns="http://www.w3.org/2000/svg">
<path d="M5.75251 7.18786H2.19839L1.54368 9H0.421324L3.36751 0.897999H4.59508L7.52957 9H6.40722L5.75251 7.18786ZM5.44854 6.32272L3.97545 2.20741L2.50236 6.32272H5.44854ZM10.1113 3.78573C10.3296 3.40381 10.6491 3.09205 11.07 2.85043C11.4909 2.60881 11.9702 2.488 12.508 2.488C13.0848 2.488 13.6031 2.6244 14.0629 2.89719C14.5228 3.16999 14.8852 3.5558 15.1502 4.05462C15.4152 4.54565 15.5477 5.11852 15.5477 5.77323C15.5477 6.42014 15.4152 6.99691 15.1502 7.50353C14.8852 8.01015 14.5189 8.40375 14.0513 8.68434C13.5914 8.96493 13.077 9.10522 12.508 9.10522C11.9546 9.10522 11.4675 8.98441 11.0466 8.74279C10.6335 8.50118 10.3218 8.19331 10.1113 7.81919V9H9.04742V0.348513H10.1113V3.78573ZM14.4604 5.77323C14.4604 5.28999 14.363 4.86911 14.1682 4.51058C13.9733 4.15205 13.7083 3.87925 13.3732 3.6922C13.0458 3.50514 12.6834 3.41161 12.2859 3.41161C11.8962 3.41161 11.5337 3.50903 11.1986 3.70389C10.8712 3.89095 10.6062 4.16764 10.4036 4.53396C10.2087 4.89249 10.1113 5.30948 10.1113 5.78492C10.1113 6.26816 10.2087 6.69294 10.4036 7.05926C10.6062 7.41779 10.8712 7.69448 11.1986 7.88934C11.5337 8.0764 11.8962 8.16992 12.2859 8.16992C12.6834 8.16992 13.0458 8.0764 13.3732 7.88934C13.7083 7.69448 13.9733 7.41779 14.1682 7.05926C14.363 6.69294 14.4604 6.26426 14.4604 5.77323ZM19.9761 9.10522C19.376 9.10522 18.8304 8.96882 18.3394 8.69603C17.8561 8.42323 17.4742 8.03742 17.1936 7.5386C16.9208 7.03198 16.7844 6.44742 16.7844 5.78492C16.7844 5.13021 16.9247 4.55345 17.2053 4.05462C17.4937 3.548 17.8834 3.16219 18.3744 2.89719C18.8655 2.6244 19.415 2.488 20.0229 2.488C20.6308 2.488 21.1803 2.6244 21.6714 2.89719C22.1624 3.16219 22.5482 3.54411 22.8288 4.04293C23.1172 4.54176 23.2614 5.12242 23.2614 5.78492C23.2614 6.44742 23.1133 7.03198 22.8171 7.5386C22.5287 8.03742 22.1351 8.42323 21.6363 8.69603C21.1375 8.96882 20.5841 9.10522 19.9761 9.10522ZM19.9761 8.16992C20.358 8.16992 20.7166 8.08029 21.0517 7.90103C21.3869 7.72176 21.6558 7.45286 21.8584 7.09433C22.0689 6.7358 22.1741 6.29933 22.1741 5.78492C22.1741 5.27051 22.0728 4.83404 21.8701 4.47551C21.6675 4.11698 21.4025 3.85198 21.0751 3.6805C20.7478 3.50124 20.3931 3.41161 20.0112 3.41161C19.6215 3.41161 19.263 3.50124 18.9356 3.6805C18.6161 3.85198 18.3588 4.11698 18.164 4.47551C17.9691 4.83404 17.8717 5.27051 17.8717 5.78492C17.8717 6.30713 17.9652 6.7475 18.1523 7.10603C18.3472 7.46456 18.6044 7.73345 18.9239 7.91272C19.2435 8.08419 19.5942 8.16992 19.9761 8.16992ZM30.5759 2.59322V9H29.512V8.05301C29.3094 8.38037 29.0249 8.63757 28.6586 8.82463C28.3001 9.0039 27.9026 9.09353 27.4661 9.09353C26.9673 9.09353 26.5191 8.99221 26.1216 8.78956C25.7241 8.57912 25.4084 8.26735 25.1746 7.85426C24.9486 7.44117 24.8356 6.93845 24.8356 6.3461V2.59322H25.8878V6.2058C25.8878 6.83713 26.0475 7.32426 26.3671 7.6672C26.6867 8.00235 27.1231 8.16992 27.6765 8.16992C28.2455 8.16992 28.6937 7.99456 29.021 7.64382C29.3484 7.29308 29.512 6.78257 29.512 6.11227V2.59322H30.5759ZM33.9038 3.47006V7.24632C33.9038 7.55809 33.9701 7.78022 34.1026 7.91272C34.2351 8.03742 34.465 8.09978 34.7924 8.09978H35.5757V9H34.617C34.0246 9 33.5804 8.8636 33.2842 8.59081C32.988 8.31801 32.8399 7.86985 32.8399 7.24632V3.47006H32.0098V2.59322H32.8399V0.979837H33.9038V2.59322H35.5757V3.47006H33.9038Z" fill="white"/>
</svg>
