<svg width="32" height="13" viewBox="0 0 32 13" fill="none" xmlns="http://www.w3.org/2000/svg">
<path d="M4.24567 4.80286C4.54185 4.84962 4.81074 4.97043 5.05236 5.16529C5.30177 5.36014 5.49663 5.60176 5.63692 5.89014C5.78501 6.17852 5.85905 6.48639 5.85905 6.81375C5.85905 7.22683 5.75383 7.60095 5.54339 7.9361C5.33295 8.26345 5.02508 8.52456 4.61979 8.71941C4.22229 8.90647 3.75074 9 3.20515 9H0.165441V0.851234H3.08824C3.64162 0.851234 4.11317 0.944764 4.50288 1.13182C4.89258 1.31109 5.18486 1.5566 5.37972 1.86837C5.57457 2.18013 5.672 2.53087 5.672 2.92058C5.672 3.40381 5.5395 3.80521 5.27449 4.12477C5.01729 4.43654 4.67435 4.66257 4.24567 4.80286ZM1.22934 4.37029H3.01809C3.51692 4.37029 3.90273 4.25337 4.17552 4.01955C4.44832 3.78573 4.58471 3.46227 4.58471 3.04918C4.58471 2.63609 4.44832 2.31263 4.17552 2.07881C3.90273 1.84499 3.50912 1.72807 2.99471 1.72807H1.22934V4.37029ZM3.11162 8.12316C3.64162 8.12316 4.05471 7.99845 4.35089 7.74904C4.64707 7.49963 4.79516 7.15279 4.79516 6.70853C4.79516 6.25647 4.63927 5.90183 4.32751 5.64463C4.01574 5.37963 3.59876 5.24713 3.07655 5.24713H1.22934V8.12316H3.11162ZM8.63316 0.348513V9H7.56926V0.348513H8.63316ZM13.4744 9.10522C12.8743 9.10522 12.3287 8.96882 11.8376 8.69603C11.3544 8.42323 10.9725 8.03742 10.6919 7.5386C10.4191 7.03198 10.2827 6.44742 10.2827 5.78492C10.2827 5.13021 10.423 4.55345 10.7036 4.05462C10.992 3.548 11.3817 3.16219 11.8727 2.89719C12.3637 2.6244 12.9132 2.488 13.5212 2.488C14.1291 2.488 14.6786 2.6244 15.1696 2.89719C15.6607 3.16219 16.0465 3.54411 16.3271 4.04293C16.6154 4.54176 16.7596 5.12242 16.7596 5.78492C16.7596 6.44742 16.6115 7.03198 16.3154 7.5386C16.027 8.03742 15.6334 8.42323 15.1346 8.69603C14.6357 8.96882 14.0824 9.10522 13.4744 9.10522ZM13.4744 8.16992C13.8563 8.16992 14.2149 8.08029 14.55 7.90103C14.8851 7.72176 15.154 7.45286 15.3567 7.09433C15.5671 6.7358 15.6724 6.29933 15.6724 5.78492C15.6724 5.27051 15.571 4.83404 15.3684 4.47551C15.1657 4.11698 14.9007 3.85198 14.5734 3.6805C14.246 3.50124 13.8914 3.41161 13.5095 3.41161C13.1198 3.41161 12.7612 3.50124 12.4339 3.6805C12.1143 3.85198 11.8571 4.11698 11.6623 4.47551C11.4674 4.83404 11.37 5.27051 11.37 5.78492C11.37 6.30713 11.4635 6.7475 11.6506 7.10603C11.8454 7.46456 12.1026 7.73345 12.4222 7.91272C12.7418 8.08419 13.0925 8.16992 13.4744 8.16992ZM21.0345 2.488C21.5879 2.488 22.0711 2.60881 22.4842 2.85043C22.9051 3.09205 23.2169 3.39602 23.4195 3.76234V2.59322H24.4951V9.14029C24.4951 9.72485 24.3704 10.2432 24.121 10.6952C23.8716 11.1551 23.513 11.5136 23.0454 11.7708C22.5855 12.028 22.0477 12.1566 21.432 12.1566C20.5902 12.1566 19.8888 11.9579 19.3276 11.5604C18.7664 11.1629 18.4352 10.6212 18.3338 9.9353H19.386C19.503 10.325 19.7446 10.6368 20.1109 10.8706C20.4772 11.1122 20.9176 11.233 21.432 11.233C22.0166 11.233 22.492 11.0499 22.8583 10.6835C23.2324 10.3172 23.4195 9.8028 23.4195 9.14029V7.79581C23.2091 8.16992 22.8973 8.48169 22.4842 8.7311C22.0711 8.98051 21.5879 9.10522 21.0345 9.10522C20.4655 9.10522 19.9472 8.96493 19.4796 8.68434C19.0197 8.40375 18.6573 8.01015 18.3923 7.50353C18.1273 6.99691 17.9948 6.42014 17.9948 5.77323C17.9948 5.11852 18.1273 4.54565 18.3923 4.05462C18.6573 3.5558 19.0197 3.16999 19.4796 2.89719C19.9472 2.6244 20.4655 2.488 21.0345 2.488ZM23.4195 5.78492C23.4195 5.30168 23.3221 4.8808 23.1272 4.52227C22.9324 4.16374 22.6674 3.89095 22.3322 3.70389C22.0049 3.50903 21.6424 3.41161 21.2449 3.41161C20.8474 3.41161 20.485 3.50514 20.1577 3.6922C19.8303 3.87925 19.5692 4.15205 19.3744 4.51058C19.1795 4.86911 19.0821 5.28999 19.0821 5.77323C19.0821 6.26426 19.1795 6.69294 19.3744 7.05926C19.5692 7.41779 19.8303 7.69448 20.1577 7.88934C20.485 8.0764 20.8474 8.16992 21.2449 8.16992C21.6424 8.16992 22.0049 8.0764 22.3322 7.88934C22.6674 7.69448 22.9324 7.41779 23.1272 7.05926C23.3221 6.69294 23.4195 6.26816 23.4195 5.78492ZM28.7949 9.10522C28.3039 9.10522 27.8635 9.02338 27.4738 8.85971C27.0841 8.68823 26.7762 8.45441 26.5502 8.15823C26.3242 7.85426 26.1995 7.50742 26.1761 7.11772H27.275C27.3062 7.43728 27.4543 7.69838 27.7193 7.90103C27.9921 8.10367 28.3467 8.205 28.7832 8.205C29.1885 8.205 29.5081 8.11537 29.7419 7.9361C29.9757 7.75684 30.0926 7.53081 30.0926 7.25801C30.0926 6.97742 29.9679 6.77088 29.7185 6.63838C29.4691 6.49808 29.0833 6.36169 28.5611 6.22919C28.0856 6.10448 27.6959 5.97977 27.392 5.85507C27.0958 5.72257 26.8386 5.53161 26.6203 5.2822C26.4099 5.02499 26.3047 4.68984 26.3047 4.27676C26.3047 3.9494 26.4021 3.64933 26.597 3.37653C26.7918 3.10374 27.0685 2.8894 27.427 2.73352C27.7856 2.56984 28.1948 2.488 28.6546 2.488C29.3639 2.488 29.9367 2.66727 30.3732 3.0258C30.8097 3.38433 31.0435 3.87536 31.0747 4.49889H30.0108C29.9874 4.16374 29.851 3.89484 29.6016 3.6922C29.36 3.48955 29.0326 3.38822 28.6195 3.38822C28.2376 3.38822 27.9337 3.47006 27.7076 3.63374C27.4816 3.79742 27.3686 4.01176 27.3686 4.27676C27.3686 4.4872 27.4348 4.66257 27.5673 4.80286C27.7076 4.93536 27.8791 5.04448 28.0817 5.13021C28.2922 5.20815 28.5806 5.29779 28.9469 5.39911C29.4067 5.52382 29.7809 5.64852 30.0692 5.77323C30.3576 5.89014 30.6031 6.06941 30.8058 6.31102C31.0162 6.55264 31.1253 6.8683 31.1331 7.25801C31.1331 7.60875 31.0357 7.92441 30.8409 8.205C30.646 8.48559 30.3693 8.70772 30.0108 8.8714C29.6601 9.02728 29.2548 9.10522 28.7949 9.10522Z" fill="white"/>
</svg>
