<svg width="49" height="10" viewBox="0 0 49 10" fill="none" xmlns="http://www.w3.org/2000/svg">
<path d="M0.547794 4.91977C0.547794 4.12477 0.727059 3.41161 1.08559 2.78028C1.44412 2.14116 1.93125 1.64234 2.54699 1.28381C3.17052 0.925279 3.8603 0.746014 4.61633 0.746014C5.50486 0.746014 6.28038 0.960352 6.94288 1.38903C7.60538 1.81771 8.08862 2.42565 8.39259 3.21286H7.11825C6.89222 2.72183 6.56486 2.34381 6.13619 2.07881C5.7153 1.81381 5.20869 1.68131 4.61633 1.68131C4.04736 1.68131 3.53684 1.81381 3.08478 2.07881C2.63272 2.34381 2.27809 2.72183 2.02089 3.21286C1.76368 3.69609 1.63508 4.26506 1.63508 4.91977C1.63508 5.56668 1.76368 6.13566 2.02089 6.62669C2.27809 7.10992 2.63272 7.48404 3.08478 7.74904C3.53684 8.01404 4.04736 8.14654 4.61633 8.14654C5.20869 8.14654 5.7153 8.01794 6.13619 7.76073C6.56486 7.49573 6.89222 7.11772 7.11825 6.62669H8.39259C8.08862 7.4061 7.60538 8.01015 6.94288 8.43882C6.28038 8.85971 5.50486 9.07015 4.61633 9.07015C3.8603 9.07015 3.17052 8.89478 2.54699 8.54404C1.93125 8.18551 1.44412 7.69059 1.08559 7.05926C0.727059 6.42794 0.547794 5.71477 0.547794 4.91977ZM13.0043 9.10522C12.4042 9.10522 11.8586 8.96882 11.3675 8.69603C10.8843 8.42323 10.5024 8.03742 10.2218 7.5386C9.94901 7.03198 9.81261 6.44742 9.81261 5.78492C9.81261 5.13021 9.95291 4.55345 10.2335 4.05462C10.5219 3.548 10.9116 3.16219 11.4026 2.89719C11.8936 2.6244 12.4431 2.488 13.0511 2.488C13.659 2.488 14.2085 2.6244 14.6995 2.89719C15.1906 3.16219 15.5764 3.54411 15.857 4.04293C16.1453 4.54176 16.2895 5.12242 16.2895 5.78492C16.2895 6.44742 16.1414 7.03198 15.8453 7.5386C15.5569 8.03742 15.1633 8.42323 14.6645 8.69603C14.1656 8.96882 13.6123 9.10522 13.0043 9.10522ZM13.0043 8.16992C13.3862 8.16992 13.7448 8.08029 14.0799 7.90103C14.415 7.72176 14.6839 7.45286 14.8866 7.09433C15.097 6.7358 15.2023 6.29933 15.2023 5.78492C15.2023 5.27051 15.1009 4.83404 14.8983 4.47551C14.6956 4.11698 14.4306 3.85198 14.1033 3.6805C13.7759 3.50124 13.4213 3.41161 13.0394 3.41161C12.6497 3.41161 12.2911 3.50124 11.9638 3.6805C11.6442 3.85198 11.387 4.11698 11.1922 4.47551C10.9973 4.83404 10.8999 5.27051 10.8999 5.78492C10.8999 6.30713 10.9934 6.7475 11.1805 7.10603C11.3753 7.46456 11.6325 7.73345 11.9521 7.91272C12.2717 8.08419 12.6224 8.16992 13.0043 8.16992ZM21.0437 2.47631C21.8232 2.47631 22.4545 2.71403 22.9377 3.18947C23.421 3.65712 23.6626 4.33521 23.6626 5.22374V9H22.6104V5.37573C22.6104 4.73661 22.4506 4.24948 22.131 3.91433C21.8115 3.57139 21.375 3.39992 20.8216 3.39992C20.2604 3.39992 19.8123 3.57528 19.4771 3.92602C19.1498 4.27676 18.9861 4.78727 18.9861 5.45757V9H17.9222V2.59322H18.9861V3.50514C19.1965 3.17778 19.481 2.92447 19.8395 2.74521C20.2059 2.56594 20.6073 2.47631 21.0437 2.47631ZM26.932 3.47006V7.24632C26.932 7.55809 26.9982 7.78022 27.1307 7.91272C27.2632 8.03742 27.4932 8.09978 27.8205 8.09978H28.6038V9H27.6452C27.0528 9 26.6085 8.8636 26.3124 8.59081C26.0162 8.31801 25.8681 7.86985 25.8681 7.24632V3.47006H25.038V2.59322H25.8681V0.979837H26.932V2.59322H28.6038V3.47006H26.932ZM29.7292 5.77323C29.7292 5.11852 29.8617 4.54565 30.1267 4.05462C30.3917 3.5558 30.7541 3.16999 31.214 2.89719C31.6816 2.6244 32.1999 2.488 32.7689 2.488C33.3301 2.488 33.8172 2.60881 34.2303 2.85043C34.6434 3.09205 34.9513 3.39602 35.1539 3.76234V2.59322H36.2295V9H35.1539V7.8075C34.9435 8.18162 34.6278 8.49338 34.2069 8.74279C33.7938 8.98441 33.3106 9.10522 32.7572 9.10522C32.1883 9.10522 31.6738 8.96493 31.214 8.68434C30.7541 8.40375 30.3917 8.01015 30.1267 7.50353C29.8617 6.99691 29.7292 6.42014 29.7292 5.77323ZM35.1539 5.78492C35.1539 5.30168 35.0565 4.8808 34.8616 4.52227C34.6668 4.16374 34.4018 3.89095 34.0666 3.70389C33.7393 3.50903 33.3769 3.41161 32.9794 3.41161C32.5819 3.41161 32.2194 3.50514 31.8921 3.6922C31.5647 3.87925 31.3036 4.15205 31.1088 4.51058C30.9139 4.86911 30.8165 5.28999 30.8165 5.77323C30.8165 6.26426 30.9139 6.69294 31.1088 7.05926C31.3036 7.41779 31.5647 7.69448 31.8921 7.88934C32.2194 8.0764 32.5819 8.16992 32.9794 8.16992C33.3769 8.16992 33.7393 8.0764 34.0666 7.88934C34.4018 7.69448 34.6668 7.41779 34.8616 7.05926C35.0565 6.69294 35.1539 6.26816 35.1539 5.78492ZM37.8637 5.78492C37.8637 5.12242 37.9962 4.54565 38.2612 4.05462C38.5262 3.5558 38.8925 3.16999 39.3602 2.89719C39.8356 2.6244 40.3773 2.488 40.9853 2.488C41.7725 2.488 42.4194 2.67896 42.926 3.06087C43.4404 3.44278 43.7795 3.97278 43.9431 4.65087H42.7974C42.6883 4.26117 42.474 3.9533 42.1544 3.72727C41.8426 3.50124 41.4529 3.38822 40.9853 3.38822C40.3773 3.38822 39.8863 3.59867 39.5122 4.01955C39.1381 4.43264 38.951 5.0211 38.951 5.78492C38.951 6.55654 39.1381 7.15279 39.5122 7.57367C39.8863 7.99456 40.3773 8.205 40.9853 8.205C41.4529 8.205 41.8426 8.09588 42.1544 7.87764C42.4662 7.65941 42.6805 7.34764 42.7974 6.94235H43.9431C43.7717 7.59706 43.4287 8.12316 42.9143 8.52066C42.3999 8.91037 41.7569 9.10522 40.9853 9.10522C40.3773 9.10522 39.8356 8.96882 39.3602 8.69603C38.8925 8.42323 38.5262 8.03742 38.2612 7.5386C37.9962 7.03978 37.8637 6.45522 37.8637 5.78492ZM46.8943 3.47006V7.24632C46.8943 7.55809 46.9605 7.78022 47.093 7.91272C47.2255 8.03742 47.4554 8.09978 47.7828 8.09978H48.5661V9H47.6074C47.0151 9 46.5708 8.8636 46.2746 8.59081C45.9785 8.31801 45.8304 7.86985 45.8304 7.24632V3.47006H45.0003V2.59322H45.8304V0.979837H46.8943V2.59322H48.5661V3.47006H46.8943Z" fill="white"/>
</svg>
