<svg width="261" height="15" viewBox="0 0 261 15" fill="none" xmlns="http://www.w3.org/2000/svg">
<path d="M0.260181 6.02402C0.260181 5.05448 0.478801 4.18476 0.916042 3.41483C1.35328 2.63541 1.94736 2.02707 2.69827 1.58983C3.45869 1.15259 4.2999 0.933972 5.22191 0.933972C6.3055 0.933972 7.25127 1.19537 8.05921 1.71815C8.86716 2.24094 9.45648 2.98235 9.82719 3.94237H8.27308C7.99743 3.34355 7.59821 2.88254 7.07542 2.55936C6.56214 2.23619 5.9443 2.0746 5.22191 2.0746C4.52803 2.0746 3.90543 2.23619 3.35413 2.55936C2.80283 2.88254 2.37034 3.34355 2.05667 3.94237C1.743 4.5317 1.58616 5.22558 1.58616 6.02402C1.58616 6.81295 1.743 7.50683 2.05667 8.10566C2.37034 8.69498 2.80283 9.15123 3.35413 9.47441C3.90543 9.79759 4.52803 9.95918 5.22191 9.95918C5.9443 9.95918 6.56214 9.80234 7.07542 9.48867C7.59821 9.16549 7.99743 8.70449 8.27308 8.10566H9.82719C9.45648 9.05618 8.86716 9.79284 8.05921 10.3156C7.25127 10.8289 6.3055 11.0855 5.22191 11.0855C4.2999 11.0855 3.45869 10.8717 2.69827 10.4439C1.94736 10.0067 1.35328 9.40312 0.916042 8.6332C0.478801 7.86328 0.260181 6.99355 0.260181 6.02402ZM15.5939 11.1283C14.862 11.1283 14.1967 10.962 13.5978 10.6293C13.0085 10.2966 12.5427 9.82611 12.2006 9.21777C11.8679 8.59993 11.7015 7.88704 11.7015 7.0791C11.7015 6.28066 11.8726 5.57727 12.2148 4.96894C12.5665 4.3511 13.0418 3.88059 13.6406 3.55741C14.2394 3.22473 14.9095 3.05839 15.651 3.05839C16.3924 3.05839 17.0625 3.22473 17.6613 3.55741C18.2601 3.88059 18.7306 4.34635 19.0728 4.95468C19.4245 5.56301 19.6004 6.27115 19.6004 7.0791C19.6004 7.88704 19.4198 8.59993 19.0586 9.21777C18.7069 9.82611 18.2269 10.2966 17.6185 10.6293C17.0102 10.962 16.3353 11.1283 15.5939 11.1283ZM15.5939 9.98769C16.0597 9.98769 16.4969 9.87838 16.9056 9.65976C17.3144 9.44114 17.6423 9.11321 17.8894 8.67597C18.1461 8.23873 18.2744 7.70644 18.2744 7.0791C18.2744 6.45175 18.1508 5.91946 17.9037 5.48222C17.6566 5.04498 17.3334 4.7218 16.9342 4.51269C16.5349 4.29407 16.1025 4.18476 15.6367 4.18476C15.1614 4.18476 14.7242 4.29407 14.325 4.51269C13.9353 4.7218 13.6216 5.04498 13.384 5.48222C13.1463 5.91946 13.0275 6.45175 13.0275 7.0791C13.0275 7.71595 13.1416 8.25299 13.3697 8.69023C13.6073 9.12747 13.921 9.4554 14.3107 9.67402C14.7004 9.88314 15.1282 9.98769 15.5939 9.98769ZM23.0315 4.62675C23.2881 4.18 23.6683 3.8093 24.1721 3.51464C24.6854 3.21047 25.2795 3.05839 25.9544 3.05839C26.6482 3.05839 27.2756 3.22473 27.8364 3.55741C28.4067 3.8901 28.8534 4.3606 29.1766 4.96894C29.4998 5.56777 29.6614 6.2664 29.6614 7.06484C29.6614 7.85377 29.4998 8.55716 29.1766 9.175C28.8534 9.79284 28.4067 10.2729 27.8364 10.615C27.2756 10.9572 26.6482 11.1283 25.9544 11.1283C25.289 11.1283 24.6997 10.981 24.1864 10.6863C23.6826 10.3822 23.2976 10.0067 23.0315 9.55996V14.707H21.734V3.18671H23.0315V4.62675ZM28.3354 7.06484C28.3354 6.47551 28.2166 5.96223 27.979 5.52499C27.7413 5.08775 27.4182 4.75507 27.0094 4.52694C26.6102 4.29882 26.1682 4.18476 25.6835 4.18476C25.2082 4.18476 24.7662 4.30357 24.3575 4.5412C23.9583 4.76933 23.6351 5.10676 23.3879 5.55351C23.1503 5.99075 23.0315 6.49928 23.0315 7.0791C23.0315 7.66842 23.1503 8.18645 23.3879 8.6332C23.6351 9.07044 23.9583 9.40788 24.3575 9.64551C24.7662 9.87363 25.2082 9.98769 25.6835 9.98769C26.1682 9.98769 26.6102 9.87363 27.0094 9.64551C27.4182 9.40788 27.7413 9.07044 27.979 8.6332C28.2166 8.18645 28.3354 7.66367 28.3354 7.06484ZM38.5266 3.18671L33.8216 14.6785H32.4813L34.0212 10.9145L30.8702 3.18671H32.3102L34.7626 9.51719L37.1864 3.18671H38.5266ZM41.5561 4.45566C41.7842 4.00891 42.1074 3.66197 42.5256 3.41483C42.9534 3.1677 43.4714 3.04413 44.0797 3.04413V4.38437H43.7375C42.2832 4.38437 41.5561 5.1733 41.5561 6.75117V11H40.2586V3.18671H41.5561V4.45566ZM46.6753 1.91776C46.4282 1.91776 46.2191 1.83222 46.048 1.66112C45.8769 1.49003 45.7913 1.28091 45.7913 1.03378C45.7913 0.786641 45.8769 0.577526 46.048 0.406432C46.2191 0.235338 46.4282 0.149791 46.6753 0.149791C46.913 0.149791 47.1126 0.235338 47.2741 0.406432C47.4452 0.577526 47.5308 0.786641 47.5308 1.03378C47.5308 1.28091 47.4452 1.49003 47.2741 1.66112C47.1126 1.83222 46.913 1.91776 46.6753 1.91776ZM47.3027 3.18671V11H46.0052V3.18671H47.3027ZM53.164 3.05839C53.8388 3.05839 54.4282 3.20572 54.9319 3.50038C55.4452 3.79504 55.8254 4.16575 56.0726 4.61249V3.18671H57.3843V11.1711C57.3843 11.884 57.2322 12.5161 56.928 13.0674C56.6239 13.6282 56.1866 14.0654 55.6163 14.3791C55.0555 14.6928 54.3997 14.8496 53.6487 14.8496C52.6222 14.8496 51.7667 14.6072 51.0823 14.1225C50.398 13.6377 49.994 12.9771 49.8704 12.1406H51.1536C51.2962 12.6159 51.5909 12.9961 52.0376 13.2813C52.4843 13.5759 53.0214 13.7232 53.6487 13.7232C54.3616 13.7232 54.9414 13.4999 55.3882 13.0531C55.8444 12.6064 56.0726 11.979 56.0726 11.1711V9.53144C55.8159 9.98769 55.4357 10.3679 54.9319 10.6721C54.4282 10.9762 53.8388 11.1283 53.164 11.1283C52.4701 11.1283 51.838 10.9572 51.2677 10.615C50.7069 10.2729 50.2649 9.79284 49.9417 9.175C49.6185 8.55716 49.4569 7.85377 49.4569 7.06484C49.4569 6.2664 49.6185 5.56777 49.9417 4.96894C50.2649 4.3606 50.7069 3.8901 51.2677 3.55741C51.838 3.22473 52.4701 3.05839 53.164 3.05839ZM56.0726 7.0791C56.0726 6.48977 55.9538 5.97649 55.7161 5.53925C55.4785 5.10201 55.1553 4.76933 54.7466 4.5412C54.3474 4.30357 53.9054 4.18476 53.4206 4.18476C52.9358 4.18476 52.4939 4.29882 52.0946 4.52694C51.6954 4.75507 51.377 5.08775 51.1394 5.52499C50.9017 5.96223 50.7829 6.47551 50.7829 7.06484C50.7829 7.66367 50.9017 8.18645 51.1394 8.6332C51.377 9.07044 51.6954 9.40788 52.0946 9.64551C52.4939 9.87363 52.9358 9.98769 53.4206 9.98769C53.9054 9.98769 54.3474 9.87363 54.7466 9.64551C55.1553 9.40788 55.4785 9.07044 55.7161 8.6332C55.9538 8.18645 56.0726 7.66842 56.0726 7.0791ZM63.8827 3.04413C64.4721 3.04413 65.0044 3.17245 65.4796 3.42909C65.9549 3.67623 66.3256 4.05168 66.5917 4.55546C66.8674 5.05924 67.0052 5.67232 67.0052 6.39472V11H65.722V6.58007C65.722 5.80064 65.5271 5.20657 65.1374 4.79784C64.7477 4.37961 64.2154 4.1705 63.5405 4.1705C62.8562 4.1705 62.3096 4.38437 61.9009 4.8121C61.5017 5.23984 61.3021 5.86243 61.3021 6.67988V11H60.0046V0.449206H61.3021V4.29882C61.5587 3.8996 61.9104 3.59068 62.3571 3.37206C62.8134 3.15344 63.3219 3.04413 63.8827 3.04413ZM71.135 4.25605V8.86133C71.135 9.24153 71.2158 9.51243 71.3773 9.67402C71.5389 9.82611 71.8193 9.90215 72.2186 9.90215H73.1738V11H72.0047C71.2823 11 70.7405 10.8337 70.3793 10.501C70.0181 10.1683 69.8375 9.62174 69.8375 8.86133V4.25605H68.8252V3.18671H69.8375V1.21913H71.135V3.18671H73.1738V4.25605H71.135ZM83.965 0.962487C84.925 0.962487 85.7805 1.18111 86.5314 1.61835C87.2823 2.04608 87.8621 2.64491 88.2709 3.41483C88.6891 4.17525 88.8982 5.04498 88.8982 6.02402C88.8982 7.00305 88.6891 7.87754 88.2709 8.64746C87.8621 9.40788 87.2823 10.0067 86.5314 10.4439C85.7805 10.8717 84.925 11.0855 83.965 11.0855C82.9955 11.0855 82.1352 10.8717 81.3843 10.4439C80.6334 10.0067 80.0488 9.40788 79.6306 8.64746C79.2124 7.87754 79.0033 7.00305 79.0033 6.02402C79.0033 5.04498 79.2124 4.17525 79.6306 3.41483C80.0488 2.64491 80.6334 2.04608 81.3843 1.61835C82.1352 1.18111 82.9955 0.962487 83.965 0.962487ZM83.965 1.5328C83.081 1.5328 82.3111 1.72291 81.6552 2.10311C80.9994 2.47382 80.4956 2.9966 80.1439 3.67148C79.7922 4.34635 79.6164 5.13053 79.6164 6.02402C79.6164 6.908 79.7922 7.69218 80.1439 8.37656C80.4956 9.05143 80.9994 9.57897 81.6552 9.95918C82.3111 10.3394 83.081 10.5295 83.965 10.5295C84.8395 10.5295 85.5999 10.3394 86.2463 9.95918C86.9021 9.57897 87.4059 9.05143 87.7576 8.37656C88.1093 7.69218 88.2851 6.908 88.2851 6.02402C88.2851 5.13053 88.1093 4.34635 87.7576 3.67148C87.4059 2.9966 86.9021 2.47382 86.2463 2.10311C85.5999 1.72291 84.8395 1.5328 83.965 1.5328ZM83.9365 2.7162C83.3662 2.7162 82.8434 2.84927 82.3681 3.11542C81.9024 3.38157 81.5317 3.76653 81.256 4.2703C80.9804 4.76458 80.8425 5.34439 80.8425 6.00976C80.8425 6.67512 80.9804 7.2597 81.256 7.76347C81.5317 8.25774 81.9024 8.64271 82.3681 8.91836C82.8434 9.1845 83.3662 9.31758 83.9365 9.31758C84.6494 9.31758 85.2672 9.12747 85.79 8.74726C86.3128 8.35755 86.6692 7.83951 86.8593 7.19316H85.6617C85.3765 7.98209 84.8015 8.37656 83.9365 8.37656C83.3662 8.37656 82.9004 8.1722 82.5392 7.76347C82.178 7.35475 81.9974 6.77493 81.9974 6.02402C81.9974 5.2636 82.178 4.67903 82.5392 4.2703C82.9004 3.86158 83.3662 3.65722 83.9365 3.65722C84.3547 3.65722 84.7159 3.76177 85.0201 3.97089C85.3242 4.1705 85.5381 4.46041 85.6617 4.84062H86.8593C86.6787 4.16575 86.327 3.64296 85.8043 3.27226C85.2815 2.90155 84.6589 2.7162 83.9365 2.7162ZM94.9805 9.95918C96.1877 8.98965 97.1334 8.19596 97.8178 7.57812C98.5022 6.95078 99.0773 6.29967 99.543 5.6248C100.018 4.94042 100.256 4.2703 100.256 3.61444C100.256 2.9966 100.104 2.51184 99.7997 2.16015C99.505 1.79895 99.025 1.61835 98.3596 1.61835C97.7133 1.61835 97.2095 1.82271 96.8483 2.23143C96.4966 2.63065 96.3065 3.1677 96.278 3.84257H95.0233C95.0613 2.77798 95.3845 1.95578 95.9928 1.37596C96.6012 0.796146 97.3853 0.506236 98.3454 0.506236C99.3244 0.506236 100.099 0.777135 100.669 1.31893C101.249 1.86073 101.539 2.60689 101.539 3.55741C101.539 4.34635 101.301 5.11627 100.826 5.86718C100.36 6.60859 99.8282 7.26445 99.2293 7.83476C98.6305 8.39557 97.8653 9.05143 96.9338 9.80234H101.839V10.8859H94.9805V9.95918ZM103.766 5.73886C103.766 4.10396 104.032 2.83026 104.565 1.91776C105.097 0.995756 106.028 0.534753 107.359 0.534753C108.68 0.534753 109.607 0.995756 110.139 1.91776C110.672 2.83026 110.938 4.10396 110.938 5.73886C110.938 7.40227 110.672 8.69498 110.139 9.61699C109.607 10.539 108.68 11 107.359 11C106.028 11 105.097 10.539 104.565 9.61699C104.032 8.69498 103.766 7.40227 103.766 5.73886ZM109.655 5.73886C109.655 4.91191 109.598 4.21327 109.484 3.64296C109.379 3.06314 109.156 2.59739 108.813 2.24569C108.481 1.894 107.996 1.71815 107.359 1.71815C106.713 1.71815 106.218 1.894 105.876 2.24569C105.544 2.59739 105.32 3.06314 105.206 3.64296C105.102 4.21327 105.049 4.91191 105.049 5.73886C105.049 6.59433 105.102 7.31197 105.206 7.89179C105.32 8.47161 105.544 8.93737 105.876 9.28906C106.218 9.64075 106.713 9.8166 107.359 9.8166C107.996 9.8166 108.481 9.64075 108.813 9.28906C109.156 8.93737 109.379 8.47161 109.484 7.89179C109.598 7.31197 109.655 6.59433 109.655 5.73886ZM112.99 9.95918C114.197 8.98965 115.143 8.19596 115.827 7.57812C116.512 6.95078 117.087 6.29967 117.552 5.6248C118.028 4.94042 118.265 4.2703 118.265 3.61444C118.265 2.9966 118.113 2.51184 117.809 2.16015C117.514 1.79895 117.034 1.61835 116.369 1.61835C115.723 1.61835 115.219 1.82271 114.858 2.23143C114.506 2.63065 114.316 3.1677 114.287 3.84257H113.033C113.071 2.77798 113.394 1.95578 114.002 1.37596C114.611 0.796146 115.395 0.506236 116.355 0.506236C117.334 0.506236 118.108 0.777135 118.679 1.31893C119.259 1.86073 119.549 2.60689 119.549 3.55741C119.549 4.34635 119.311 5.11627 118.836 5.86718C118.37 6.60859 117.838 7.26445 117.239 7.83476C116.64 8.39557 115.875 9.05143 114.943 9.80234H119.848V10.8859H112.99V9.95918ZM121.776 5.73886C121.776 4.10396 122.042 2.83026 122.574 1.91776C123.106 0.995756 124.038 0.534753 125.369 0.534753C126.69 0.534753 127.616 0.995756 128.149 1.91776C128.681 2.83026 128.947 4.10396 128.947 5.73886C128.947 7.40227 128.681 8.69498 128.149 9.61699C127.616 10.539 126.69 11 125.369 11C124.038 11 123.106 10.539 122.574 9.61699C122.042 8.69498 121.776 7.40227 121.776 5.73886ZM127.664 5.73886C127.664 4.91191 127.607 4.21327 127.493 3.64296C127.388 3.06314 127.165 2.59739 126.823 2.24569C126.49 1.894 126.005 1.71815 125.369 1.71815C124.722 1.71815 124.228 1.894 123.886 2.24569C123.553 2.59739 123.33 3.06314 123.216 3.64296C123.111 4.21327 123.059 4.91191 123.059 5.73886C123.059 6.59433 123.111 7.31197 123.216 7.89179C123.33 8.47161 123.553 8.93737 123.886 9.28906C124.228 9.64075 124.722 9.8166 125.369 9.8166C126.005 9.8166 126.49 9.64075 126.823 9.28906C127.165 8.93737 127.388 8.47161 127.493 7.89179C127.607 7.31197 127.664 6.59433 127.664 5.73886ZM132.71 9.20351L131.113 13.0389H130.244L131.285 9.20351H132.71ZM146.51 1.06229V11H145.212V6.49453H140.151V11H138.853V1.06229H140.151V5.42519H145.212V1.06229H146.51ZM156.282 6.79394C156.282 7.04108 156.267 7.30247 156.239 7.57812H149.994C150.042 8.34804 150.303 8.95163 150.778 9.38887C151.263 9.8166 151.848 10.0305 152.532 10.0305C153.093 10.0305 153.558 9.90215 153.929 9.64551C154.309 9.37936 154.576 9.02767 154.728 8.59043H156.125C155.916 9.34134 155.498 9.95443 154.87 10.4297C154.243 10.8954 153.463 11.1283 152.532 11.1283C151.79 11.1283 151.125 10.962 150.536 10.6293C149.956 10.2966 149.5 9.82611 149.167 9.21777C148.834 8.59993 148.668 7.88704 148.668 7.0791C148.668 6.27115 148.83 5.56301 149.153 4.95468C149.476 4.34635 149.927 3.88059 150.507 3.55741C151.097 3.22473 151.771 3.05839 152.532 3.05839C153.273 3.05839 153.929 3.21998 154.499 3.54316C155.07 3.86633 155.507 4.31308 155.811 4.88339C156.125 5.4442 156.282 6.08105 156.282 6.79394ZM154.941 6.52304C154.941 6.02877 154.832 5.60579 154.614 5.25409C154.395 4.8929 154.096 4.622 153.715 4.4414C153.345 4.25129 152.931 4.15624 152.475 4.15624C151.819 4.15624 151.258 4.36536 150.792 4.78359C150.336 5.20182 150.075 5.78163 150.008 6.52304H154.941ZM159.72 4.45566C159.948 4.00891 160.271 3.66197 160.689 3.41483C161.117 3.1677 161.635 3.04413 162.243 3.04413V4.38437H161.901C160.447 4.38437 159.72 5.1733 159.72 6.75117V11H158.422V3.18671H159.72V4.45566ZM167.576 11.1283C166.844 11.1283 166.179 10.962 165.58 10.6293C164.991 10.2966 164.525 9.82611 164.183 9.21777C163.85 8.59993 163.684 7.88704 163.684 7.0791C163.684 6.28066 163.855 5.57727 164.197 4.96894C164.549 4.3511 165.024 3.88059 165.623 3.55741C166.222 3.22473 166.892 3.05839 167.633 3.05839C168.375 3.05839 169.045 3.22473 169.644 3.55741C170.242 3.88059 170.713 4.34635 171.055 4.95468C171.407 5.56301 171.583 6.27115 171.583 7.0791C171.583 7.88704 171.402 8.59993 171.041 9.21777C170.689 9.82611 170.209 10.2966 169.601 10.6293C168.993 10.962 168.318 11.1283 167.576 11.1283ZM167.576 9.98769C168.042 9.98769 168.479 9.87838 168.888 9.65976C169.297 9.44114 169.625 9.11321 169.872 8.67597C170.128 8.23873 170.257 7.70644 170.257 7.0791C170.257 6.45175 170.133 5.91946 169.886 5.48222C169.639 5.04498 169.316 4.7218 168.916 4.51269C168.517 4.29407 168.085 4.18476 167.619 4.18476C167.144 4.18476 166.707 4.29407 166.307 4.51269C165.918 4.7218 165.604 5.04498 165.366 5.48222C165.129 5.91946 165.01 6.45175 165.01 7.0791C165.01 7.71595 165.124 8.25299 165.352 8.69023C165.59 9.12747 165.903 9.4554 166.293 9.67402C166.683 9.88314 167.111 9.98769 167.576 9.98769ZM185.602 1.06229V11H184.304V6.49453H179.243V11H177.945V1.06229H179.243V5.42519H184.304V1.06229H185.602ZM195.374 6.79394C195.374 7.04108 195.36 7.30247 195.331 7.57812H189.086C189.134 8.34804 189.395 8.95163 189.87 9.38887C190.355 9.8166 190.94 10.0305 191.624 10.0305C192.185 10.0305 192.651 9.90215 193.021 9.64551C193.401 9.37936 193.668 9.02767 193.82 8.59043H195.217C195.008 9.34134 194.59 9.95443 193.962 10.4297C193.335 10.8954 192.555 11.1283 191.624 11.1283C190.883 11.1283 190.217 10.962 189.628 10.6293C189.048 10.2966 188.592 9.82611 188.259 9.21777C187.926 8.59993 187.76 7.88704 187.76 7.0791C187.76 6.27115 187.922 5.56301 188.245 4.95468C188.568 4.34635 189.02 3.88059 189.599 3.55741C190.189 3.22473 190.864 3.05839 191.624 3.05839C192.365 3.05839 193.021 3.21998 193.592 3.54316C194.162 3.86633 194.599 4.31308 194.903 4.88339C195.217 5.4442 195.374 6.08105 195.374 6.79394ZM194.034 6.52304C194.034 6.02877 193.924 5.60579 193.706 5.25409C193.487 4.8929 193.188 4.622 192.807 4.4414C192.437 4.25129 192.023 4.15624 191.567 4.15624C190.911 4.15624 190.35 4.36536 189.885 4.78359C189.428 5.20182 189.167 5.78163 189.1 6.52304H194.034ZM197.029 7.06484C197.029 6.2664 197.191 5.56777 197.514 4.96894C197.837 4.3606 198.279 3.8901 198.84 3.55741C199.41 3.22473 200.043 3.05839 200.736 3.05839C201.421 3.05839 202.015 3.20572 202.519 3.50038C203.022 3.79504 203.398 4.16575 203.645 4.61249V3.18671H204.957V11H203.645V9.5457C203.388 10.002 203.003 10.3822 202.49 10.6863C201.986 10.981 201.397 11.1283 200.722 11.1283C200.028 11.1283 199.401 10.9572 198.84 10.615C198.279 10.2729 197.837 9.79284 197.514 9.175C197.191 8.55716 197.029 7.85377 197.029 7.06484ZM203.645 7.0791C203.645 6.48977 203.526 5.97649 203.289 5.53925C203.051 5.10201 202.728 4.76933 202.319 4.5412C201.92 4.30357 201.478 4.18476 200.993 4.18476C200.508 4.18476 200.066 4.29882 199.667 4.52694C199.268 4.75507 198.949 5.08775 198.712 5.52499C198.474 5.96223 198.355 6.47551 198.355 7.06484C198.355 7.66367 198.474 8.18645 198.712 8.6332C198.949 9.07044 199.268 9.40788 199.667 9.64551C200.066 9.87363 200.508 9.98769 200.993 9.98769C201.478 9.98769 201.92 9.87363 202.319 9.64551C202.728 9.40788 203.051 9.07044 203.289 8.6332C203.526 8.18645 203.645 7.66842 203.645 7.0791ZM207.092 7.06484C207.092 6.2664 207.254 5.56777 207.577 4.96894C207.9 4.3606 208.342 3.8901 208.903 3.55741C209.473 3.22473 210.11 3.05839 210.814 3.05839C211.422 3.05839 211.987 3.20097 212.51 3.48612C213.033 3.76177 213.432 4.12773 213.708 4.58398V0.449206H215.02V11H213.708V9.53144C213.451 9.9972 213.071 10.3822 212.567 10.6863C212.064 10.981 211.474 11.1283 210.799 11.1283C210.105 11.1283 209.473 10.9572 208.903 10.615C208.342 10.2729 207.9 9.79284 207.577 9.175C207.254 8.55716 207.092 7.85377 207.092 7.06484ZM213.708 7.0791C213.708 6.48977 213.589 5.97649 213.351 5.53925C213.114 5.10201 212.791 4.76933 212.382 4.5412C211.983 4.30357 211.541 4.18476 211.056 4.18476C210.571 4.18476 210.129 4.29882 209.73 4.52694C209.331 4.75507 209.012 5.08775 208.775 5.52499C208.537 5.96223 208.418 6.47551 208.418 7.06484C208.418 7.66367 208.537 8.18645 208.775 8.6332C209.012 9.07044 209.331 9.40788 209.73 9.64551C210.129 9.87363 210.571 9.98769 211.056 9.98769C211.541 9.98769 211.983 9.87363 212.382 9.64551C212.791 9.40788 213.114 9.07044 213.351 8.6332C213.589 8.18645 213.708 7.66842 213.708 7.0791ZM224.769 6.79394C224.769 7.04108 224.755 7.30247 224.726 7.57812H218.481C218.529 8.34804 218.79 8.95163 219.265 9.38887C219.75 9.8166 220.335 10.0305 221.019 10.0305C221.58 10.0305 222.046 9.90215 222.416 9.64551C222.797 9.37936 223.063 9.02767 223.215 8.59043H224.612C224.403 9.34134 223.985 9.95443 223.357 10.4297C222.73 10.8954 221.951 11.1283 221.019 11.1283C220.278 11.1283 219.612 10.962 219.023 10.6293C218.443 10.2966 217.987 9.82611 217.654 9.21777C217.322 8.59993 217.155 7.88704 217.155 7.0791C217.155 6.27115 217.317 5.56301 217.64 4.95468C217.963 4.34635 218.415 3.88059 218.994 3.55741C219.584 3.22473 220.259 3.05839 221.019 3.05839C221.76 3.05839 222.416 3.21998 222.987 3.54316C223.557 3.86633 223.994 4.31308 224.298 4.88339C224.612 5.4442 224.769 6.08105 224.769 6.79394ZM223.429 6.52304C223.429 6.02877 223.319 5.60579 223.101 5.25409C222.882 4.8929 222.583 4.622 222.202 4.4414C221.832 4.25129 221.418 4.15624 220.962 4.15624C220.306 4.15624 219.745 4.36536 219.28 4.78359C218.823 5.20182 218.562 5.78163 218.495 6.52304H223.429ZM228.207 4.45566C228.435 4.00891 228.758 3.66197 229.176 3.41483C229.604 3.1677 230.122 3.04413 230.73 3.04413V4.38437H230.388C228.934 4.38437 228.207 5.1733 228.207 6.75117V11H226.909V3.18671H228.207V4.45566ZM238.182 1.06229V11H236.885V1.06229H238.182ZM244.628 3.04413C245.579 3.04413 246.348 3.33404 246.938 3.91386C247.527 4.48417 247.822 5.31113 247.822 6.39472V11H246.539V6.58007C246.539 5.80064 246.344 5.20657 245.954 4.79784C245.564 4.37961 245.032 4.1705 244.357 4.1705C243.673 4.1705 243.126 4.38437 242.717 4.8121C242.318 5.23984 242.119 5.86243 242.119 6.67988V11H240.821V3.18671H242.119V4.29882C242.375 3.8996 242.722 3.59068 243.159 3.37206C243.606 3.15344 244.096 3.04413 244.628 3.04413ZM249.884 7.0791C249.884 6.27115 250.046 5.56777 250.369 4.96894C250.692 4.3606 251.139 3.8901 251.709 3.55741C252.289 3.22473 252.95 3.05839 253.691 3.05839C254.651 3.05839 255.44 3.29127 256.058 3.75702C256.685 4.22278 257.099 4.86913 257.298 5.69609H255.901C255.768 5.22083 255.506 4.84537 255.117 4.56972C254.737 4.29407 254.261 4.15624 253.691 4.15624C252.95 4.15624 252.351 4.41288 251.894 4.92616C251.438 5.42994 251.21 6.14759 251.21 7.0791C251.21 8.02011 251.438 8.74726 251.894 9.26054C252.351 9.77383 252.95 10.0305 253.691 10.0305C254.261 10.0305 254.737 9.89739 255.117 9.63125C255.497 9.3651 255.758 8.98489 255.901 8.49062H257.298C257.089 9.28906 256.671 9.93066 256.044 10.4154C255.416 10.8907 254.632 11.1283 253.691 11.1283C252.95 11.1283 252.289 10.962 251.709 10.6293C251.139 10.2966 250.692 9.82611 250.369 9.21777C250.046 8.60944 249.884 7.89655 249.884 7.0791ZM259.871 11.0855C259.624 11.0855 259.414 11 259.243 10.8289C259.072 10.6578 258.987 10.4487 258.987 10.2016C258.987 9.95443 259.072 9.74531 259.243 9.57422C259.414 9.40312 259.624 9.31758 259.871 9.31758C260.108 9.31758 260.308 9.40312 260.469 9.57422C260.641 9.74531 260.726 9.95443 260.726 10.2016C260.726 10.4487 260.641 10.6578 260.469 10.8289C260.308 11 260.108 11.0855 259.871 11.0855Z" fill="#F7EEFF"/>
</svg>
