<svg width="107" height="13" viewBox="0 0 107 13" fill="none" xmlns="http://www.w3.org/2000/svg">
<path d="M0.603897 4.66375C0.603897 3.81298 0.779776 3.05629 1.13154 2.39367C1.49148 1.72288 1.99866 1.20342 2.6531 0.835298C3.30754 0.458998 4.06014 0.270847 4.9109 0.270847C5.99072 0.270847 6.89875 0.561253 7.63499 1.14206C8.37123 1.7147 8.8457 2.49593 9.05839 3.48576H6.46928C6.31385 3.15855 6.09707 2.90904 5.81893 2.73725C5.54898 2.56546 5.23403 2.47957 4.87409 2.47957C4.31782 2.47957 3.87199 2.67999 3.53659 3.08083C3.20937 3.47349 3.04576 4.00113 3.04576 4.66375C3.04576 5.33455 3.20937 5.87037 3.53659 6.27121C3.87199 6.66387 4.31782 6.8602 4.87409 6.8602C5.23403 6.8602 5.54898 6.77431 5.81893 6.60252C6.09707 6.43073 6.31385 6.18122 6.46928 5.854H9.05839C8.8457 6.84384 8.37123 7.62916 7.63499 8.20997C6.89875 8.78261 5.99072 9.06892 4.9109 9.06892C4.06014 9.06892 3.30754 8.88486 2.6531 8.51674C1.99866 8.14044 1.49148 7.62098 1.13154 6.95837C0.779776 6.28757 0.603897 5.5227 0.603897 4.66375ZM12.6023 3.33852C12.8723 2.94585 13.1995 2.635 13.584 2.40594C13.9685 2.17689 14.3816 2.06237 14.8233 2.06237V4.62694H14.1484C13.6249 4.62694 13.2363 4.72919 12.9827 4.9337C12.7291 5.13822 12.6023 5.49406 12.6023 6.00125V9.00757H10.1973V2.12372H12.6023V3.33852ZM22.2626 5.48588C22.2626 5.67403 22.2503 5.86219 22.2258 6.05034H17.6734C17.6979 6.42664 17.8002 6.70886 17.9801 6.89701C18.1683 7.07698 18.4055 7.16697 18.6918 7.16697C19.0927 7.16697 19.379 6.987 19.5508 6.62706H22.1154C22.009 7.10152 21.8004 7.52691 21.4895 7.90321C21.1869 8.27133 20.8024 8.56173 20.3361 8.77443C19.8698 8.98712 19.3544 9.09346 18.79 9.09346C18.111 9.09346 17.5057 8.95031 16.9739 8.66399C16.4504 8.37767 16.0373 7.96865 15.7346 7.43692C15.4401 6.90519 15.2929 6.27939 15.2929 5.55951C15.2929 4.83963 15.4401 4.21791 15.7346 3.69437C16.0291 3.16264 16.4381 2.75361 16.9617 2.4673C17.4934 2.18098 18.1028 2.03782 18.79 2.03782C19.469 2.03782 20.0702 2.17689 20.5938 2.45503C21.1173 2.73316 21.5264 3.134 21.8209 3.65755C22.1153 4.17292 22.2626 4.78237 22.2626 5.48588ZM19.8085 4.88462C19.8085 4.59012 19.7103 4.36107 19.514 4.19746C19.3176 4.02567 19.0722 3.93978 18.7777 3.93978C18.4832 3.93978 18.2419 4.02158 18.0538 4.18519C17.8656 4.34062 17.7429 4.57376 17.6856 4.88462H19.8085ZM22.8542 5.55951C22.8542 4.84781 22.981 4.22609 23.2346 3.69437C23.4963 3.16264 23.8481 2.75361 24.2898 2.4673C24.7398 2.18098 25.2388 2.03782 25.7869 2.03782C26.2613 2.03782 26.6704 2.1319 27.0139 2.32005C27.3575 2.5082 27.6234 2.76179 27.8115 3.08083V2.12372H30.2166V9.00757H27.8115V8.05046C27.6234 8.36949 27.3534 8.62309 27.0017 8.81124C26.6581 8.99939 26.2532 9.09346 25.7869 9.09346C25.2388 9.09346 24.7398 8.95031 24.2898 8.66399C23.8481 8.37767 23.4963 7.96865 23.2346 7.43692C22.981 6.89701 22.8542 6.27121 22.8542 5.55951ZM27.8115 5.55951C27.8115 5.11776 27.6888 4.77009 27.4434 4.5165C27.2062 4.26291 26.9117 4.13611 26.5599 4.13611C26.2 4.13611 25.9014 4.26291 25.6642 4.5165C25.4269 4.76191 25.3083 5.10958 25.3083 5.55951C25.3083 6.00125 25.4269 6.35301 25.6642 6.61479C25.9014 6.86838 26.2 6.99518 26.5599 6.99518C26.9117 6.99518 27.2062 6.86838 27.4434 6.61479C27.6888 6.36119 27.8115 6.00943 27.8115 5.55951ZM35.6487 6.95837V9.00757H34.6057C32.8469 9.00757 31.9675 8.13635 31.9675 6.39391V4.12384H31.1208V2.12372H31.9675V0.454907H34.3848V2.12372H35.6364V4.12384H34.3848V6.43073C34.3848 6.61888 34.4257 6.75385 34.5075 6.83566C34.5975 6.91746 34.7447 6.95837 34.9492 6.95837H35.6487ZM37.9666 1.48564C37.5412 1.48564 37.1976 1.37112 36.9358 1.14206C36.6822 0.904832 36.5554 0.610336 36.5554 0.258576C36.5554 -0.101364 36.6822 -0.39995 36.9358 -0.637183C37.1976 -0.874416 37.5412 -0.993033 37.9666 -0.993033C38.3838 -0.993033 38.7192 -0.874416 38.9728 -0.637183C39.2345 -0.39995 39.3654 -0.101364 39.3654 0.258576C39.3654 0.610336 39.2345 0.904832 38.9728 1.14206C38.7192 1.37112 38.3838 1.48564 37.9666 1.48564ZM39.1568 2.12372V9.00757H36.7518V2.12372H39.1568ZM43.8273 6.73749L45.1157 2.12372H47.6802L45.312 9.00757H42.318L39.9497 2.12372H42.5143L43.8273 6.73749ZM55.0723 5.48588C55.0723 5.67403 55.06 5.86219 55.0355 6.05034H50.483C50.5076 6.42664 50.6098 6.70886 50.7898 6.89701C50.978 7.07698 51.2152 7.16697 51.5015 7.16697C51.9024 7.16697 52.1887 6.987 52.3605 6.62706H54.925C54.8187 7.10152 54.6101 7.52691 54.2992 7.90321C53.9965 8.27133 53.6121 8.56173 53.1458 8.77443C52.6795 8.98712 52.1641 9.09346 51.5997 9.09346C50.9207 9.09346 50.3153 8.95031 49.7836 8.66399C49.2601 8.37767 48.847 7.96865 48.5443 7.43692C48.2498 6.90519 48.1025 6.27939 48.1025 5.55951C48.1025 4.83963 48.2498 4.21791 48.5443 3.69437C48.8388 3.16264 49.2478 2.75361 49.7713 2.4673C50.3031 2.18098 50.9125 2.03782 51.5997 2.03782C52.2787 2.03782 52.8799 2.17689 53.4035 2.45503C53.927 2.73316 54.336 3.134 54.6305 3.65755C54.925 4.17292 55.0723 4.78237 55.0723 5.48588ZM52.6181 4.88462C52.6181 4.59012 52.52 4.36107 52.3236 4.19746C52.1273 4.02567 51.8819 3.93978 51.5874 3.93978C51.2929 3.93978 51.0516 4.02158 50.8634 4.18519C50.6753 4.34062 50.5526 4.57376 50.4953 4.88462H52.6181ZM63.8779 7.59644H60.8103L60.344 9.00757H57.8162L60.9698 0.356741H63.7429L66.8842 9.00757H64.3442L63.8779 7.59644ZM63.2767 5.75584L62.3441 2.95812L61.4238 5.75584H63.2767ZM70.2082 2.03782C70.6744 2.03782 71.0794 2.1319 71.4229 2.32005C71.7747 2.5082 72.0447 2.76179 72.2328 3.08083V2.12372H74.6379V8.93394C74.6379 9.5802 74.5152 10.161 74.2697 10.6764C74.0243 11.1999 73.6399 11.6171 73.1163 11.928C72.6009 12.2388 71.9465 12.3943 71.153 12.3943C70.0895 12.3943 69.2388 12.1448 68.6007 11.6458C67.9626 11.1468 67.5986 10.4678 67.5086 9.60883H69.8768C69.9259 9.8297 70.0486 10.0015 70.245 10.1242C70.4413 10.2469 70.6949 10.3083 71.0057 10.3083C71.8238 10.3083 72.2328 9.85015 72.2328 8.93394V8.05046C72.0447 8.36949 71.7747 8.62309 71.4229 8.81124C71.0794 8.99939 70.6744 9.09346 70.2082 9.09346C69.6601 9.09346 69.1611 8.95031 68.7111 8.66399C68.2694 8.37767 67.9176 7.96865 67.6559 7.43692C67.4023 6.89701 67.2755 6.27121 67.2755 5.55951C67.2755 4.84781 67.4023 4.22609 67.6559 3.69437C67.9176 3.16264 68.2694 2.75361 68.7111 2.4673C69.1611 2.18098 69.6601 2.03782 70.2082 2.03782ZM72.2328 5.55951C72.2328 5.11776 72.1101 4.77009 71.8647 4.5165C71.6275 4.26291 71.333 4.13611 70.9812 4.13611C70.6213 4.13611 70.3227 4.26291 70.0854 4.5165C69.8482 4.76191 69.7296 5.10958 69.7296 5.55951C69.7296 6.00125 69.8482 6.35301 70.0854 6.61479C70.3227 6.86838 70.6213 6.99518 70.9812 6.99518C71.333 6.99518 71.6275 6.86838 71.8647 6.61479C72.1101 6.36119 72.2328 6.00943 72.2328 5.55951ZM82.5854 5.48588C82.5854 5.67403 82.5732 5.86219 82.5486 6.05034H77.9962C78.0207 6.42664 78.123 6.70886 78.303 6.89701C78.4911 7.07698 78.7283 7.16697 79.0147 7.16697C79.4155 7.16697 79.7018 6.987 79.8736 6.62706H82.4382C82.3318 7.10152 82.1232 7.52691 81.8124 7.90321C81.5097 8.27133 81.1252 8.56173 80.6589 8.77443C80.1926 8.98712 79.6773 9.09346 79.1128 9.09346C78.4339 9.09346 77.8285 8.95031 77.2968 8.66399C76.7732 8.37767 76.3601 7.96865 76.0574 7.43692C75.7629 6.90519 75.6157 6.27939 75.6157 5.55951C75.6157 4.83963 75.7629 4.21791 76.0574 3.69437C76.3519 3.16264 76.7609 2.75361 77.2845 2.4673C77.8162 2.18098 78.4257 2.03782 79.1128 2.03782C79.7918 2.03782 80.3931 2.17689 80.9166 2.45503C81.4402 2.73316 81.8492 3.134 82.1437 3.65755C82.4382 4.17292 82.5854 4.78237 82.5854 5.48588ZM80.1313 4.88462C80.1313 4.59012 80.0331 4.36107 79.8368 4.19746C79.6405 4.02567 79.3951 3.93978 79.1006 3.93978C78.8061 3.93978 78.5647 4.02158 78.3766 4.18519C78.1884 4.34062 78.0657 4.57376 78.0085 4.88462H80.1313ZM88.073 2.06237C88.8665 2.06237 89.4964 2.32823 89.9627 2.85996C90.429 3.38351 90.6621 4.09521 90.6621 4.99506V9.00757H88.2571V5.31409C88.2571 4.92143 88.1548 4.61467 87.9503 4.39379C87.7458 4.16474 87.4717 4.05022 87.1282 4.05022C86.7682 4.05022 86.486 4.16474 86.2815 4.39379C86.077 4.61467 85.9747 4.92143 85.9747 5.31409V9.00757H83.5697V2.12372H85.9747V3.10537C86.1874 2.79452 86.4737 2.54501 86.8337 2.35686C87.1936 2.16053 87.6067 2.06237 88.073 2.06237ZM91.5891 5.55951C91.5891 4.84781 91.7364 4.22609 92.0309 3.69437C92.3254 3.16264 92.7344 2.75361 93.2579 2.4673C93.7897 2.18098 94.395 2.03782 95.074 2.03782C95.9493 2.03782 96.6856 2.27915 97.2827 2.76179C97.8799 3.23626 98.2644 3.90297 98.4362 4.76191H95.8839C95.7366 4.31199 95.4503 4.08703 95.0249 4.08703C94.7222 4.08703 94.4809 4.21382 94.301 4.46742C94.1292 4.71283 94.0433 5.07686 94.0433 5.55951C94.0433 6.04215 94.1292 6.41028 94.301 6.66387C94.4809 6.91746 94.7222 7.04426 95.0249 7.04426C95.4585 7.04426 95.7448 6.8193 95.8839 6.36937H98.4362C98.2644 7.22014 97.8799 7.88685 97.2827 8.36949C96.6856 8.85214 95.9493 9.09346 95.074 9.09346C94.395 9.09346 93.7897 8.95031 93.2579 8.66399C92.7344 8.37767 92.3254 7.96865 92.0309 7.43692C91.7364 6.90519 91.5891 6.27939 91.5891 5.55951ZM106.847 2.12372L102.478 12.2838H99.8647L101.509 8.71307L98.6868 2.12372H101.362L102.81 6.02579L104.209 2.12372H106.847Z" fill="#FFE074"/>
</svg>
