<svg width="50" height="23" viewBox="0 0 50 23" fill="none" xmlns="http://www.w3.org/2000/svg">
<path d="M14.3936 7.85123V16H13.3297V12.3056H9.17934V16H8.11544V7.85123H9.17934V11.4287H13.3297V7.85123H14.3936ZM19.2382 16.1052C18.6381 16.1052 18.0925 15.9688 17.6015 15.696C17.1182 15.4232 16.7363 15.0374 16.4557 14.5386C16.1829 14.032 16.0466 13.4474 16.0466 12.7849C16.0466 12.1302 16.1868 11.5534 16.4674 11.0546C16.7558 10.548 17.1455 10.1622 17.6366 9.89719C18.1276 9.6244 18.6771 9.488 19.285 9.488C19.893 9.488 20.4424 9.6244 20.9335 9.89719C21.4245 10.1622 21.8103 10.5441 22.0909 11.0429C22.3793 11.5418 22.5235 12.1224 22.5235 12.7849C22.5235 13.4474 22.3754 14.032 22.0792 14.5386C21.7908 15.0374 21.3972 15.4232 20.8984 15.696C20.3996 15.9688 19.8462 16.1052 19.2382 16.1052ZM19.2382 15.1699C19.6202 15.1699 19.9787 15.0803 20.3138 14.901C20.649 14.7218 20.9179 14.4529 21.1205 14.0943C21.331 13.7358 21.4362 13.2993 21.4362 12.7849C21.4362 12.2705 21.3349 11.834 21.1322 11.4755C20.9296 11.117 20.6646 10.852 20.3372 10.6805C20.0099 10.5012 19.6552 10.4116 19.2733 10.4116C18.8836 10.4116 18.5251 10.5012 18.1977 10.6805C17.8782 10.852 17.621 11.117 17.4261 11.4755C17.2313 11.834 17.1338 12.2705 17.1338 12.7849C17.1338 13.3071 17.2274 13.7475 17.4144 14.106C17.6093 14.4646 17.8665 14.7335 18.186 14.9127C18.5056 15.0842 18.8563 15.1699 19.2382 15.1699ZM31.8606 9.47631C32.3595 9.47631 32.8037 9.58153 33.1934 9.79197C33.5831 9.99462 33.891 10.3025 34.117 10.7156C34.3431 11.1287 34.4561 11.6314 34.4561 12.2237V16H33.4039V12.3757C33.4039 11.7366 33.2441 11.2495 32.9245 10.9143C32.6128 10.5714 32.188 10.3999 31.6502 10.3999C31.0968 10.3999 30.6564 10.5792 30.3291 10.9377C30.0017 11.2884 29.8381 11.799 29.8381 12.4693V16H28.7858V12.3757C28.7858 11.7366 28.6261 11.2495 28.3065 10.9143C27.9947 10.5714 27.57 10.3999 27.0322 10.3999C26.4788 10.3999 26.0384 10.5792 25.7111 10.9377C25.3837 11.2884 25.22 11.799 25.22 12.4693V16H24.1561V9.59322H25.22V10.5168C25.4305 10.1817 25.7111 9.92447 26.0618 9.74521C26.4203 9.56594 26.8139 9.47631 27.2426 9.47631C27.7804 9.47631 28.2558 9.59712 28.6689 9.83874C29.082 10.0804 29.3899 10.435 29.5925 10.9026C29.7718 10.4506 30.068 10.0998 30.4811 9.85043C30.8942 9.60102 31.354 9.47631 31.8606 9.47631ZM42.2807 12.5511C42.2807 12.7537 42.269 12.9681 42.2456 13.1941H37.1249C37.1638 13.8254 37.3782 14.3204 37.7679 14.6789C38.1654 15.0296 38.6447 15.205 39.2059 15.205C39.6658 15.205 40.0477 15.0998 40.3516 14.8893C40.6634 14.6711 40.8816 14.3827 41.0063 14.0242H42.1521C41.9806 14.6399 41.6377 15.1426 41.1233 15.5324C40.6088 15.9143 39.9697 16.1052 39.2059 16.1052C38.598 16.1052 38.0524 15.9688 37.5691 15.696C37.0937 15.4232 36.7196 15.0374 36.4468 14.5386C36.174 14.032 36.0376 13.4474 36.0376 12.7849C36.0376 12.1224 36.1701 11.5418 36.4351 11.0429C36.7001 10.5441 37.0703 10.1622 37.5458 9.89719C38.029 9.6244 38.5824 9.488 39.2059 9.488C39.8138 9.488 40.3516 9.6205 40.8193 9.8855C41.2869 10.1505 41.6455 10.5168 41.8949 10.9845C42.1521 11.4443 42.2807 11.9665 42.2807 12.5511ZM41.1817 12.329C41.1817 11.9237 41.0921 11.5768 40.9128 11.2884C40.7336 10.9923 40.488 10.7701 40.1763 10.622C39.8723 10.4662 39.5333 10.3882 39.1591 10.3882C38.6213 10.3882 38.1615 10.5597 37.7796 10.9026C37.4055 11.2456 37.1911 11.721 37.1366 12.329H41.1817Z" fill="white"/>
</svg>
