<svg width="49" height="10" viewBox="0 0 49 10" fill="none" xmlns="http://www.w3.org/2000/svg">
<path d="M5.69953 3.23624C5.69953 3.91433 5.46571 4.4794 4.99806 4.93146C4.5382 5.37573 3.83284 5.59786 2.88195 5.59786H1.31533V9H0.251432V0.851234H2.88195C3.80166 0.851234 4.49923 1.07337 4.97468 1.51763C5.45791 1.9619 5.69953 2.53477 5.69953 3.23624ZM2.88195 4.72102C3.47431 4.72102 3.91078 4.59242 4.19137 4.33521C4.47195 4.07801 4.61225 3.71168 4.61225 3.23624C4.61225 2.2308 4.03548 1.72807 2.88195 1.72807H1.31533V4.72102H2.88195ZM10.0498 9.10522C9.4497 9.10522 8.90411 8.96882 8.41308 8.69603C7.92984 8.42323 7.54793 8.03742 7.26734 7.5386C6.99454 7.03198 6.85815 6.44742 6.85815 5.78492C6.85815 5.13021 6.99844 4.55345 7.27903 4.05462C7.56741 3.548 7.95712 3.16219 8.44815 2.89719C8.93918 2.6244 9.48867 2.488 10.0966 2.488C10.7046 2.488 11.254 2.6244 11.7451 2.89719C12.2361 3.16219 12.6219 3.54411 12.9025 4.04293C13.1909 4.54176 13.3351 5.12242 13.3351 5.78492C13.3351 6.44742 13.187 7.03198 12.8908 7.5386C12.6024 8.03742 12.2088 8.42323 11.71 8.69603C11.2112 8.96882 10.6578 9.10522 10.0498 9.10522ZM10.0498 8.16992C10.4318 8.16992 10.7903 8.08029 11.1254 7.90103C11.4606 7.72176 11.7295 7.45286 11.9321 7.09433C12.1426 6.7358 12.2478 6.29933 12.2478 5.78492C12.2478 5.27051 12.1465 4.83404 11.9438 4.47551C11.7412 4.11698 11.4762 3.85198 11.1488 3.6805C10.8215 3.50124 10.4668 3.41161 10.0849 3.41161C9.69521 3.41161 9.33668 3.50124 9.00933 3.6805C8.68977 3.85198 8.43256 4.11698 8.23771 4.47551C8.04285 4.83404 7.94543 5.27051 7.94543 5.78492C7.94543 6.30713 8.03896 6.7475 8.22602 7.10603C8.42087 7.46456 8.67808 7.73345 8.99764 7.91272C9.3172 8.08419 9.66793 8.16992 10.0498 8.16992ZM16.0316 3.63374C16.2187 3.26742 16.4837 2.98293 16.8266 2.78028C17.1774 2.57763 17.6021 2.47631 18.101 2.47631V3.57528H17.8204C16.6279 3.57528 16.0316 4.2222 16.0316 5.51602V9H14.9677V2.59322H16.0316V3.63374ZM20.8606 3.47006V7.24632C20.8606 7.55809 20.9269 7.78022 21.0594 7.91272C21.1919 8.03742 21.4218 8.09978 21.7492 8.09978H22.5325V9H21.5738C20.9814 9 20.5372 8.8636 20.241 8.59081C19.9448 8.31801 19.7967 7.86985 19.7967 7.24632V3.47006H18.9667V2.59322H19.7967V0.979837H20.8606V2.59322H22.5325V3.47006H20.8606ZM26.6625 3.47006H25.318V9H24.2541V3.47006H23.424V2.59322H24.2541V2.13727C24.2541 1.42021 24.4373 0.897999 24.8036 0.570646C25.1777 0.235498 25.774 0.0679238 26.5923 0.0679238V0.956455C26.1247 0.956455 25.7934 1.04998 25.5986 1.23704C25.4115 1.41631 25.318 1.71638 25.318 2.13727V2.59322H26.6625V3.47006ZM30.931 9.10522C30.3308 9.10522 29.7852 8.96882 29.2942 8.69603C28.811 8.42323 28.429 8.03742 28.1485 7.5386C27.8757 7.03198 27.7393 6.44742 27.7393 5.78492C27.7393 5.13021 27.8796 4.55345 28.1601 4.05462C28.4485 3.548 28.8382 3.16219 29.3293 2.89719C29.8203 2.6244 30.3698 2.488 30.9777 2.488C31.5857 2.488 32.1352 2.6244 32.6262 2.89719C33.1172 3.16219 33.503 3.54411 33.7836 4.04293C34.072 4.54176 34.2162 5.12242 34.2162 5.78492C34.2162 6.44742 34.0681 7.03198 33.7719 7.5386C33.4835 8.03742 33.0899 8.42323 32.5911 8.69603C32.0923 8.96882 31.5389 9.10522 30.931 9.10522ZM30.931 8.16992C31.3129 8.16992 31.6714 8.08029 32.0066 7.90103C32.3417 7.72176 32.6106 7.45286 32.8132 7.09433C33.0237 6.7358 33.1289 6.29933 33.1289 5.78492C33.1289 5.27051 33.0276 4.83404 32.8249 4.47551C32.6223 4.11698 32.3573 3.85198 32.0299 3.6805C31.7026 3.50124 31.3479 3.41161 30.966 3.41161C30.5763 3.41161 30.2178 3.50124 29.8904 3.6805C29.5709 3.85198 29.3137 4.11698 29.1188 4.47551C28.924 4.83404 28.8265 5.27051 28.8265 5.78492C28.8265 6.30713 28.9201 6.7475 29.1071 7.10603C29.302 7.46456 29.5592 7.73345 29.8788 7.91272C30.1983 8.08419 30.5491 8.16992 30.931 8.16992ZM36.9127 0.348513V9H35.8488V0.348513H36.9127ZM39.5093 1.55271C39.3066 1.55271 39.1352 1.48256 38.9949 1.34226C38.8546 1.20197 38.7844 1.0305 38.7844 0.827852C38.7844 0.625204 38.8546 0.453734 38.9949 0.313439C39.1352 0.173145 39.3066 0.102998 39.5093 0.102998C39.7041 0.102998 39.8678 0.173145 40.0003 0.313439C40.1406 0.453734 40.2108 0.625204 40.2108 0.827852C40.2108 1.0305 40.1406 1.20197 40.0003 1.34226C39.8678 1.48256 39.7041 1.55271 39.5093 1.55271ZM40.0237 2.59322V9H38.9598V2.59322H40.0237ZM44.865 9.10522C44.2648 9.10522 43.7192 8.96882 43.2282 8.69603C42.7449 8.42323 42.363 8.03742 42.0824 7.5386C41.8097 7.03198 41.6733 6.44742 41.6733 5.78492C41.6733 5.13021 41.8135 4.55345 42.0941 4.05462C42.3825 3.548 42.7722 3.16219 43.2633 2.89719C43.7543 2.6244 44.3038 2.488 44.9117 2.488C45.5197 2.488 46.0691 2.6244 46.5602 2.89719C47.0512 3.16219 47.437 3.54411 47.7176 4.04293C48.006 4.54176 48.1502 5.12242 48.1502 5.78492C48.1502 6.44742 48.0021 7.03198 47.7059 7.5386C47.4175 8.03742 47.0239 8.42323 46.5251 8.69603C46.0263 8.96882 45.4729 9.10522 44.865 9.10522ZM44.865 8.16992C45.2469 8.16992 45.6054 8.08029 45.9405 7.90103C46.2757 7.72176 46.5446 7.45286 46.7472 7.09433C46.9577 6.7358 47.0629 6.29933 47.0629 5.78492C47.0629 5.27051 46.9616 4.83404 46.7589 4.47551C46.5563 4.11698 46.2913 3.85198 45.9639 3.6805C45.6366 3.50124 45.2819 3.41161 44.9 3.41161C44.5103 3.41161 44.1518 3.50124 43.8244 3.6805C43.5049 3.85198 43.2477 4.11698 43.0528 4.47551C42.858 4.83404 42.7605 5.27051 42.7605 5.78492C42.7605 6.30713 42.8541 6.7475 43.0411 7.10603C43.236 7.46456 43.4932 7.73345 43.8127 7.91272C44.1323 8.08419 44.483 8.16992 44.865 8.16992Z" fill="white"/>
</svg>
