<svg width="142" height="14" viewBox="0 0 142 14" fill="none" xmlns="http://www.w3.org/2000/svg">
<path d="M8.4807 1.40312V2.36601H5.26001V13.0076H4.0979V2.36601H0.860609V1.40312H8.4807ZM14.9641 3.77713C15.6503 3.77713 16.2646 3.92101 16.8069 4.20877C17.3603 4.49653 17.7919 4.93924 18.1018 5.53689C18.4228 6.12348 18.5832 6.84288 18.5832 7.69509V13.0076H17.4377V7.8279C17.4377 6.84288 17.1887 6.09028 16.6907 5.5701C16.2037 5.04991 15.5341 4.78982 14.6819 4.78982C13.8075 4.78982 13.1103 5.06652 12.5901 5.6199C12.0699 6.17328 11.8098 6.98676 11.8098 8.06032V13.0076H10.6477V0.722457H11.8098V5.48709C12.0976 4.94477 12.5182 4.5242 13.0715 4.22537C13.636 3.92655 14.2668 3.77713 14.9641 3.77713ZM29.6865 8.01052C29.6865 8.40895 29.6755 8.71331 29.6533 8.9236H22.1328C22.166 9.60979 22.3321 10.1964 22.6309 10.6834C22.9297 11.1703 23.3226 11.5411 23.8096 11.7957C24.2966 12.0391 24.8278 12.1609 25.4033 12.1609C26.1559 12.1609 26.7868 11.9783 27.2959 11.613C27.8161 11.2478 28.1592 10.7553 28.3252 10.1355H29.5537C29.3324 11.0209 28.8564 11.7459 28.126 12.3103C27.4066 12.8637 26.499 13.1404 25.4033 13.1404C24.5511 13.1404 23.7875 12.9522 23.1123 12.5759C22.4372 12.1886 21.9059 11.6462 21.5186 10.949C21.1423 10.2407 20.9541 9.41611 20.9541 8.47536C20.9541 7.53461 21.1423 6.71007 21.5186 6.00173C21.8949 5.2934 22.4206 4.75109 23.0957 4.37479C23.7709 3.99849 24.5401 3.81034 25.4033 3.81034C26.2666 3.81034 27.0192 3.99849 27.6611 4.37479C28.3141 4.75109 28.8122 5.2602 29.1553 5.90213C29.5094 6.53298 29.6865 7.23578 29.6865 8.01052ZM28.5078 7.97731C28.5189 7.30219 28.3805 6.72667 28.0928 6.25076C27.8161 5.77485 27.4342 5.41515 26.9473 5.17166C26.4603 4.92817 25.929 4.80643 25.3535 4.80643C24.4902 4.80643 23.7542 5.08312 23.1455 5.6365C22.5368 6.18988 22.1992 6.97016 22.1328 7.97731H28.5078ZM38.1779 5.95193C38.4768 5.32107 38.9361 4.80643 39.5559 4.40799C40.1867 4.00955 40.9282 3.81034 41.7805 3.81034C42.6105 3.81034 43.3521 4.00402 44.0051 4.39139C44.6581 4.76769 45.1672 5.31001 45.5324 6.01834C45.9087 6.7156 46.0968 7.52907 46.0968 8.45876C46.0968 9.38844 45.9087 10.2074 45.5324 10.9158C45.1672 11.6241 44.6525 12.172 43.9885 12.5593C43.3355 12.9467 42.5995 13.1404 41.7805 13.1404C40.9172 13.1404 40.1701 12.9467 39.5393 12.5593C38.9195 12.1609 38.4657 11.6462 38.1779 11.0154V13.0076H37.0324V0.722457H38.1779V5.95193ZM44.9181 8.45876C44.9181 7.70616 44.7687 7.0587 44.4699 6.51638C44.1821 5.963 43.7837 5.54243 43.2746 5.25467C42.7655 4.96691 42.19 4.82303 41.548 4.82303C40.9282 4.82303 40.3583 4.97244 39.8381 5.27127C39.329 5.5701 38.925 5.9962 38.6262 6.54958C38.3273 7.10297 38.1779 7.74489 38.1779 8.47536C38.1779 9.20582 38.3273 9.84775 38.6262 10.4011C38.925 10.9545 39.329 11.3806 39.8381 11.6794C40.3583 11.9783 40.9282 12.1277 41.548 12.1277C42.19 12.1277 42.7655 11.9838 43.2746 11.696C43.7837 11.3972 44.1821 10.9711 44.4699 10.4177C44.7687 9.85328 44.9181 9.20029 44.9181 8.45876ZM56.7684 8.01052C56.7684 8.40895 56.7573 8.71331 56.7352 8.9236H49.2147C49.2479 9.60979 49.4139 10.1964 49.7127 10.6834C50.0116 11.1703 50.4045 11.5411 50.8914 11.7957C51.3784 12.0391 51.9097 12.1609 52.4852 12.1609C53.2378 12.1609 53.8686 11.9783 54.3778 11.613C54.8979 11.2478 55.241 10.7553 55.407 10.1355H56.6356C56.4142 11.0209 55.9383 11.7459 55.2078 12.3103C54.4884 12.8637 53.5809 13.1404 52.4852 13.1404C51.633 13.1404 50.8693 12.9522 50.1942 12.5759C49.519 12.1886 48.9878 11.6462 48.6004 10.949C48.2241 10.2407 48.036 9.41611 48.036 8.47536C48.036 7.53461 48.2241 6.71007 48.6004 6.00173C48.9767 5.2934 49.5024 4.75109 50.1776 4.37479C50.8527 3.99849 51.6219 3.81034 52.4852 3.81034C53.3485 3.81034 54.1011 3.99849 54.743 4.37479C55.396 4.75109 55.894 5.2602 56.2371 5.90213C56.5913 6.53298 56.7684 7.23578 56.7684 8.01052ZM55.5897 7.97731C55.6007 7.30219 55.4624 6.72667 55.1746 6.25076C54.8979 5.77485 54.5161 5.41515 54.0291 5.17166C53.5421 4.92817 53.0109 4.80643 52.4354 4.80643C51.5721 4.80643 50.8361 5.08312 50.2274 5.6365C49.6187 6.18988 49.2811 6.97016 49.2147 7.97731H55.5897ZM62.3476 13.1404C61.3073 13.1404 60.4551 12.9024 59.791 12.4265C59.138 11.9395 58.7728 11.281 58.6953 10.4509H59.8906C59.946 10.96 60.1839 11.3751 60.6045 11.696C61.0361 12.0059 61.6116 12.1609 62.331 12.1609C62.9619 12.1609 63.4544 12.0115 63.8086 11.7127C64.1738 11.4138 64.3564 11.0431 64.3564 10.6004C64.3564 10.2905 64.2568 10.0359 64.0576 9.83668C63.8584 9.63746 63.6038 9.48252 63.2939 9.37184C62.9951 9.2501 62.5856 9.12282 62.0654 8.99C61.3903 8.81292 60.8424 8.63584 60.4219 8.45876C60.0013 8.28167 59.6416 8.02158 59.3428 7.67849C59.055 7.32432 58.9111 6.85394 58.9111 6.26736C58.9111 5.82465 59.0439 5.41515 59.3096 5.03885C59.5752 4.66255 59.9515 4.36372 60.4385 4.14237C60.9254 3.92101 61.4788 3.81034 62.0986 3.81034C63.0726 3.81034 63.8584 4.05936 64.456 4.5574C65.0537 5.04438 65.3746 5.71951 65.4189 6.58279H64.2568C64.2236 6.05154 64.0133 5.62543 63.626 5.30447C63.2497 4.97244 62.7295 4.80643 62.0654 4.80643C61.4788 4.80643 61.0029 4.94477 60.6377 5.22146C60.2725 5.49816 60.0898 5.84125 60.0898 6.25076C60.0898 6.60492 60.195 6.89822 60.4053 7.13064C60.6266 7.35199 60.8978 7.52907 61.2187 7.66188C61.5397 7.78363 61.9713 7.92197 62.5137 8.07692C63.1666 8.254 63.6868 8.42555 64.0742 8.59157C64.4616 8.75758 64.7936 9.00107 65.0703 9.32203C65.347 9.643 65.4909 10.0691 65.5019 10.6004C65.5019 11.0873 65.3691 11.5245 65.1035 11.9119C64.8379 12.2882 64.4671 12.587 63.9912 12.8084C63.5153 13.0297 62.9674 13.1404 62.3476 13.1404ZM69.5322 4.92264V10.5505C69.5322 11.1039 69.6373 11.4858 69.8476 11.696C70.0579 11.9063 70.4287 12.0115 70.9599 12.0115H72.0224V13.0076H70.7773C69.9583 13.0076 69.3496 12.8194 68.9511 12.4431C68.5527 12.0557 68.3535 11.4249 68.3535 10.5505V4.92264H67.0918V3.94315H68.3535V1.66874H69.5322V3.94315H72.0224V4.92264H69.5322ZM79.7398 2.23319C79.5074 2.23319 79.3082 2.15019 79.1421 1.98417C78.9761 1.81816 78.8931 1.6134 78.8931 1.36992C78.8931 1.12643 78.9761 0.927208 79.1421 0.772261C79.3082 0.606246 79.5074 0.523239 79.7398 0.523239C79.9722 0.523239 80.1714 0.606246 80.3375 0.772261C80.5035 0.927208 80.5865 1.12643 80.5865 1.36992C80.5865 1.6134 80.5035 1.81816 80.3375 1.98417C80.1714 2.15019 79.9722 2.23319 79.7398 2.23319ZM80.3209 3.94315V13.0076H79.1587V3.94315H80.3209ZM87.5345 3.77713C88.6191 3.77713 89.5045 4.1147 90.1907 4.78982C90.8769 5.45388 91.22 6.42231 91.22 7.69509V13.0076H90.0745V7.8279C90.0745 6.84288 89.8255 6.09028 89.3274 5.5701C88.8404 5.04991 88.1709 4.78982 87.3186 4.78982C86.4443 4.78982 85.747 5.06652 85.2269 5.6199C84.7067 6.17328 84.4466 6.98676 84.4466 8.06032V13.0076H83.2845V3.94315H84.4466V5.48709C84.7343 4.9337 85.1494 4.51313 85.6917 4.22537C86.234 3.92655 86.8483 3.77713 87.5345 3.77713ZM100.521 4.92264V10.5505C100.521 11.1039 100.626 11.4858 100.836 11.696C101.046 11.9063 101.417 12.0115 101.948 12.0115H103.011V13.0076H101.766C100.947 13.0076 100.338 12.8194 99.9395 12.4431C99.5411 12.0557 99.3419 11.4249 99.3419 10.5505V4.92264H98.0802V3.94315H99.3419V1.66874H100.521V3.94315H103.011V4.92264H100.521ZM109.227 13.1404C108.375 13.1404 107.606 12.9522 106.92 12.5759C106.244 12.1886 105.708 11.6462 105.309 10.949C104.922 10.2407 104.728 9.41611 104.728 8.47536C104.728 7.53461 104.927 6.7156 105.326 6.01834C105.724 5.31001 106.267 4.76769 106.953 4.39139C107.639 4.00402 108.408 3.81034 109.26 3.81034C110.113 3.81034 110.882 4.00402 111.568 4.39139C112.265 4.76769 112.808 5.31001 113.195 6.01834C113.593 6.7156 113.793 7.53461 113.793 8.47536C113.793 9.40504 113.593 10.224 113.195 10.9324C112.796 11.6407 112.249 12.1886 111.551 12.5759C110.854 12.9522 110.079 13.1404 109.227 13.1404ZM109.227 12.1277C109.825 12.1277 110.378 11.9949 110.887 11.7293C111.396 11.4526 111.806 11.0431 112.116 10.5007C112.437 9.94736 112.597 9.27223 112.597 8.47536C112.597 7.67849 112.442 7.00889 112.132 6.46658C111.823 5.91319 111.413 5.50369 110.904 5.23807C110.395 4.96137 109.841 4.82303 109.244 4.82303C108.646 4.82303 108.093 4.96137 107.584 5.23807C107.075 5.50369 106.665 5.91319 106.355 6.46658C106.056 7.00889 105.907 7.67849 105.907 8.47536C105.907 9.27223 106.056 9.94736 106.355 10.5007C106.665 11.0431 107.069 11.4526 107.567 11.7293C108.076 11.9949 108.63 12.1277 109.227 12.1277ZM128.196 3.94315L125.357 13.0076H124.195L121.688 5.40408L119.181 13.0076H118.003L115.164 3.94315H116.343L118.6 11.8289L121.14 3.94315H122.303L124.809 11.8455L127.051 3.94315H128.196ZM134.362 3.77713C135.447 3.77713 136.332 4.1147 137.019 4.78982C137.705 5.45388 138.048 6.42231 138.048 7.69509V13.0076H136.902V7.8279C136.902 6.84288 136.653 6.09028 136.155 5.5701C135.668 5.04991 134.999 4.78982 134.147 4.78982C133.272 4.78982 132.575 5.06652 132.055 5.6199C131.535 6.17328 131.274 6.98676 131.274 8.06032V13.0076H130.112V3.94315H131.274V5.48709C131.562 4.9337 131.977 4.51313 132.52 4.22537C133.062 3.92655 133.676 3.77713 134.362 3.77713ZM141.149 13.0906C140.906 13.0906 140.701 13.0076 140.535 12.8416C140.38 12.6755 140.303 12.4708 140.303 12.2273C140.303 11.9838 140.38 11.7846 140.535 11.6296C140.701 11.4636 140.906 11.3806 141.149 11.3806C141.382 11.3806 141.575 11.4636 141.73 11.6296C141.896 11.7846 141.979 11.9838 141.979 12.2273C141.979 12.4708 141.896 12.6755 141.73 12.8416C141.575 13.0076 141.382 13.0906 141.149 13.0906Z" fill="white"/>
</svg>
